<svg width="448" height="115" viewBox="0 0 448 115" fill="none" xmlns="http://www.w3.org/2000/svg">
  <rect x="156" y="43" width="50" height="15" fill="currentColor"/>
  <rect x="172" y="43" width="72" height="16" transform="rotate(90 172 43)" fill="currentColor"/>
  <rect x="156" y="71" width="39" height="14" fill="currentColor"/>
  <rect x="156" y="101" width="50" height="14" fill="currentColor"/>
  <rect x="213" y="43" width="54" height="15" fill="currentColor"/>
  <rect x="248" y="58" width="57" height="16" transform="rotate(90 248 58)" fill="currentColor"/>
  <rect x="290" y="43" width="72" height="16" transform="rotate(90 290 43)" fill="currentColor"/>
  <rect width="72" height="16" transform="matrix(4.37114e-08 1 1 -4.37114e-08 319.176 43)" fill="currentColor"/>
  <path fill-rule="evenodd" clip-rule="evenodd" d="M304.589 66.0945L289.99 43L277 50.5L300 87L304.504 84.4226L309 87L332.175 50.5L319.185 43L304.589 66.0945Z" fill="currentColor"/>
  <rect width="9" height="6" transform="translate(300 81)" fill="currentColor"/>
  <path d="M386.176 43L358.176 115L342.176 115L370.176 43L386.176 43Z" fill="currentColor"/>
  <g opacity="0.99">
    <rect x="409.176" y="43" width="72" height="16" transform="rotate(90 409.176 43)" fill="currentColor"/>
    <path fill-rule="evenodd" clip-rule="evenodd" d="M409.176 88H424.676C437.102 88 447.176 77.9264 447.176 65.5C447.176 53.0736 437.102 43 424.676 43H409.176V59H423.5C427.642 59 431 62.3579 431 66.5C431 70.6421 427.642 74 423.5 74H409.176V88Z" fill="currentColor"/>
  </g>
  <g clip-path="url(#clip0_104_241)">
    <rect x="156" width="50" height="15" fill="currentColor"/>
    <rect x="172" width="72" height="16" transform="rotate(90 172 0)" fill="currentColor"/>
    <rect x="213" width="54" height="15" fill="currentColor"/>
    <rect x="248" y="15" width="57" height="16" transform="rotate(90 248 15)" fill="currentColor"/>
    <rect x="290" width="72" height="16" transform="rotate(90 290 0)" fill="currentColor"/>
    <rect width="72" height="16" transform="matrix(4.37114e-08 1 1 -4.37114e-08 319.176 0)" fill="currentColor"/>
    <path fill-rule="evenodd" clip-rule="evenodd" d="M304.589 23.0945L289.99 0L277 7.5L300 44L304.504 41.4226L309 44L332.175 7.5L319.185 0L304.589 23.0945Z" fill="currentColor"/>
    <path d="M386.176 0L358.176 72L342.176 72L370.176 -6.99382e-07L386.176 0Z" fill="currentColor"/>
    <g opacity="0.99">
      <rect x="409.176" width="72" height="16" transform="rotate(90 409.176 0)" fill="currentColor"/>
      <path fill-rule="evenodd" clip-rule="evenodd" d="M409.176 45H424.676C437.102 45 447.176 34.9264 447.176 22.5C447.176 10.0736 437.102 0 424.676 0H409.176V16H423.5C427.642 16 431 19.3579 431 23.5C431 27.6421 427.642 31 423.5 31H409.176V45Z" fill="currentColor"/>
    </g>
  </g>
  <path d="M57.5 115C89.2564 115 115 89.2564 115 57.5C115 25.7436 89.2564 0 57.5 0C25.7436 0 0 25.7436 0 57.5C0 89.2564 25.7436 115 57.5 115Z" fill="#010101"/>
  <path d="M79.8008 82.4959L90.9233 76.4943V39.9319L79.8008 45.9336V82.4959Z" fill="white"/>
  <path d="M91.3428 40.0298L79.703 46L46.3564 26.8695L57.1818 21.1299C58.1571 20.5567 59.3595 20.5322 60.3557 21.0635L91.3428 40.0298Z" fill="white"/>
  <path d="M80.0945 56.2556L69.0769 62.2957L36.814 45.4233L45.9895 39.6837C46.9647 39.1105 48.1672 39.086 49.1634 39.6173L80.0945 56.2556Z" fill="white"/>
  <path d="M70.0906 73.6105L57.4965 79.0983L29.3896 62.7152L37.908 58.0942C38.9007 57.5559 40.1032 57.5734 41.0819 58.1397L70.0906 73.6105Z" fill="white"/>
  <path d="M68.8181 88.3403L79.8008 82.3946V56.025L68.8181 61.9707V88.3403Z" fill="white"/>
  <path d="M57.6365 96.1386L69.4755 89.34V73.0163L57.6365 78.3678V96.1386Z" fill="white"/>
  <path d="M57.8774 96.4742C57.2377 96.4742 56.5981 96.3099 56.0248 95.9778L25.4047 78.2979C24.2652 77.6407 23.5557 76.4103 23.5557 75.0926V39.7362C23.5557 38.4184 24.2652 37.188 25.4082 36.5309L56.0283 18.8509C57.1713 18.1903 58.5905 18.1938 59.73 18.8509L90.3535 36.5309C91.493 37.188 92.2026 38.4184 92.2026 39.7362V75.0961C92.2026 76.4138 91.493 77.6442 90.35 78.3014L59.73 95.9813C59.1602 96.3099 58.5171 96.4742 57.8774 96.4742ZM27.6768 74.8514L57.8774 92.2866L88.078 74.8514V39.9809L57.8774 22.5456L27.6768 39.9809V74.8514Z" fill="white"/>
  <defs>
    <clipPath id="clip0_104_241">
      <rect width="291.2" height="26" fill="white" transform="translate(156)"/>
    </clipPath>
  </defs>
</svg>
