<svg width="894" height="230" viewBox="0 0 894 230" fill="none" xmlns="http://www.w3.org/2000/svg">
<path fill-rule="evenodd" clip-rule="evenodd" d="M411.94 0H343.981H312V29.9805V51.9662H343.981V29.9805H411.94V0ZM894 44.9707C894 47.3502 893.815 49.6866 893.459 51.9662H860.815C861.368 50.4033 861.668 48.7215 861.668 46.9694C861.668 38.6905 854.957 31.9792 846.677 31.9792H818.046V51.9662H786.065V0H818.046H849.027C873.865 0 894 20.1341 894 44.9707ZM772.074 3.8441e-06L751.864 51.9662H719.883L740.093 0L772.074 3.8441e-06ZM670.135 0V51.9662H547.858V0H579.819H579.838V0.0303956L608.999 46.1589L638.154 0.0298213V0H638.173H670.135ZM495.889 29.9805V51.9662H463.908V29.9805L425.931 29.9805V0H533.866V29.9805H495.889ZM411.94 85.9441H343.981H312V115.925V141.908V169.889V201.869V229.85H343.981H411.94V201.869H343.981L343.981 169.889H389.953V141.908H343.981V115.925H411.94V85.9441ZM425.931 85.9441H533.866V115.925H495.889V229.85H463.908V115.925H425.931V85.9441ZM579.838 85.9441V85.9745L608.999 132.103L638.154 85.9739V85.9441H638.173H670.135V229.85H638.154V141.856L617.815 173.887H599.826L579.838 142.169V229.85H547.858V85.9441H579.819H579.838ZM772.074 85.9441L716.107 229.85H684.127L740.093 85.9441L772.074 85.9441ZM818.046 229.85V175.886H849.027C873.865 175.886 894 155.751 894 130.915C894 106.078 873.865 85.9441 849.027 85.9441H818.046H786.065V229.85H818.046ZM846.677 147.904H818.046V117.923H846.677C854.957 117.923 861.668 124.635 861.668 132.913C861.668 141.192 854.957 147.904 846.677 147.904Z" fill="url(#paint0_linear_982_3848)"/>
<path fill-rule="evenodd" clip-rule="evenodd" d="M411.94 0H343.981H312V29.9805V51.9662H343.981V29.9805H411.94V0ZM894 44.9707C894 47.3502 893.815 49.6866 893.459 51.9662H860.815C861.368 50.4033 861.668 48.7215 861.668 46.9694C861.668 38.6905 854.957 31.9792 846.677 31.9792H818.046V51.9662H786.065V0H818.046H849.027C873.865 0 894 20.1341 894 44.9707ZM772.074 3.8441e-06L751.864 51.9662H719.883L740.093 0L772.074 3.8441e-06ZM670.135 0V51.9662H547.858V0H579.819H579.838V0.0303956L608.999 46.1589L638.154 0.0298213V0H638.173H670.135ZM495.889 29.9805V51.9662H463.908V29.9805L425.931 29.9805V0H533.866V29.9805H495.889ZM411.94 85.9441H343.981H312V115.925V141.908V169.889V201.869V229.85H343.981H411.94V201.869H343.981L343.981 169.889H389.953V141.908H343.981V115.925H411.94V85.9441ZM425.931 85.9441H533.866V115.925H495.889V229.85H463.908V115.925H425.931V85.9441ZM579.838 85.9441V85.9745L608.999 132.103L638.154 85.9739V85.9441H638.173H670.135V229.85H638.154V141.856L617.815 173.887H599.826L579.838 142.169V229.85H547.858V85.9441H579.819H579.838ZM772.074 85.9441L716.107 229.85H684.127L740.093 85.9441L772.074 85.9441ZM818.046 229.85V175.886H849.027C873.865 175.886 894 155.751 894 130.915C894 106.078 873.865 85.9441 849.027 85.9441H818.046H786.065V229.85H818.046ZM846.677 147.904H818.046V117.923H846.677C854.957 117.923 861.668 124.635 861.668 132.913C861.668 141.192 854.957 147.904 846.677 147.904Z" fill="currentColor"/>
<circle cx="115" cy="115" r="115" fill="#010101"/>
<path d="M159.278 165.027L181.491 153.042V80.0273L159.278 92.0126V165.027Z" fill="white"/>
<path d="M182.329 80.2276L159.083 92.1501L92.4878 53.9465L114.107 42.4847C116.054 41.34 118.456 41.2911 120.445 42.3521L182.329 80.2276Z" fill="white"/>
<path d="M159.867 112.629L137.864 124.692L73.4326 90.9973L91.7568 79.5355C93.7044 78.3907 96.1057 78.3419 98.0952 79.4029L159.867 112.629Z" fill="white"/>
<path d="M139.887 147.288L114.736 158.247L58.6045 125.53L75.6163 116.302C77.5988 115.227 80.0001 115.262 81.9547 116.393L139.887 147.288Z" fill="white"/>
<path d="M137.347 176.694L159.28 164.82V112.16L137.347 124.034V176.694Z" fill="white"/>
<path d="M115.016 192.269L138.66 178.692V146.094L115.016 156.781V192.269Z" fill="white"/>
<path d="M115.496 192.945C114.219 192.945 112.942 192.617 111.797 191.954L50.6464 156.647C48.3707 155.335 46.9536 152.878 46.9536 150.246V79.6399C46.9536 77.0083 48.3707 74.5512 50.6533 73.2389L111.804 37.9322C114.086 36.6129 116.92 36.6199 119.196 37.9322L180.354 73.2389C182.629 74.5512 184.046 77.0083 184.046 79.6399V150.253C184.046 152.885 182.629 155.342 180.347 156.654L119.196 191.961C118.058 192.617 116.774 192.945 115.496 192.945ZM55.1838 149.765L115.496 184.583L175.809 149.765V80.1285L115.496 45.3104L55.1838 80.1285V149.765Z" fill="white"/>
<defs>
<linearGradient id="paint0_linear_982_3848" x1="252.055" y1="261.967" x2="1118.4" y2="102.636" gradientUnits="userSpaceOnUse">
<stop offset="0.126059" stop-color="#7C2DF4"/>
<stop offset="1" stop-color="#C07FFE"/>
</linearGradient>
</defs>
</svg>
